<?xml version="1.0" encoding="iso-8859-1"?>
<!-- Generator: Adobe Illustrator 19.0.0, SVG Export Plug-In . SVG Version: 6.00 Build 0)  -->
<svg version="1.1" id="Layer_1" xmlns="http://www.w3.org/2000/svg" xmlns:xlink="http://www.w3.org/1999/xlink" x="0px" y="0px"
	 viewBox="0 0 512 512" style="enable-background:new 0 0 512 512;" xml:space="preserve">
<g>
	<g>
		<path d="M501.801,272.685h-44.494v-14.729c0-24.704-20.097-44.801-44.801-44.801c-24.704,0-44.801,20.098-44.801,44.801v14.729
			h-44.494c-5.632,0-10.199,4.566-10.199,10.199v132.374c0,25.284,20.57,45.853,45.853,45.853h107.283
			c25.283,0,45.853-20.569,45.853-45.853V282.884C512,277.251,507.433,272.685,501.801,272.685z M388.103,257.956
			c0-13.456,10.947-24.403,24.403-24.403c13.456,0,24.403,10.947,24.403,24.403v14.729h-48.805V257.956z M491.602,415.259
			c0,14.035-11.418,25.454-25.454,25.454H358.864c-14.036,0-25.454-11.419-25.454-25.454V293.083h34.295v19.566
			c0,5.633,4.567,10.199,10.199,10.199c5.632,0,10.199-4.566,10.199-10.199v-19.566h48.805v19.566
			c0,5.633,4.567,10.199,10.199,10.199c5.632,0,10.199-4.566,10.199-10.199v-19.566h34.295V415.259z"/>
	</g>
</g>
<g>
	<g>
		<path d="M447.108,332.216c-5.632,0-10.199,4.566-10.199,10.199v3.841c0,5.633,4.567,10.199,10.199,10.199
			c5.632,0,10.199-4.566,10.199-10.199v-3.841C457.307,336.782,452.74,332.216,447.108,332.216z"/>
	</g>
</g>
<g>
	<g>
		<path d="M102.375,50.889C45.925,50.889,0,96.813,0,153.263s45.925,102.375,102.375,102.375s102.375-45.925,102.375-102.375
			S158.824,50.889,102.375,50.889z M102.375,235.24c-45.202,0-81.976-36.775-81.976-81.976c0-45.202,36.774-81.976,81.976-81.976
			s81.976,36.774,81.976,81.976S147.576,235.24,102.375,235.24z"/>
	</g>
</g>
<g>
	<g>
		<path d="M127.936,105.298V91.813c0-5.633-4.566-10.199-10.199-10.199c-5.633,0-10.199,4.566-10.199,10.199v7.335
			c-1.7-0.161-3.422-0.252-5.163-0.252c-1.741,0-3.463,0.091-5.164,0.252v-7.335c0-5.633-4.566-10.199-10.199-10.199
			c-5.633,0-10.199,4.566-10.199,10.199v13.485c-17.125,9.163-28.805,27.223-28.805,47.965s11.68,38.802,28.805,47.965v11.565
			c0,5.633,4.566,10.199,10.199,10.199c5.633,0,10.199-4.566,10.199-10.199v-5.415c1.701,0.16,3.422,0.251,5.164,0.251
			s3.463-0.091,5.163-0.252v5.415c0,5.633,4.566,10.199,10.199,10.199c5.633,0,10.199-4.566,10.199-10.199v-11.565
			c17.124-9.163,28.805-27.223,28.805-47.965S145.06,114.461,127.936,105.298z M76.812,175.597
			c-5.227-5.977-8.406-13.788-8.406-22.333s3.178-16.357,8.406-22.333V175.597z M107.537,186.839
			c-1.684,0.258-3.409,0.392-5.163,0.392s-3.479-0.134-5.164-0.392v-67.153c1.685-0.258,3.409-0.392,5.164-0.392
			c1.755,0,3.479,0.134,5.163,0.392V186.839z M127.937,175.597V130.93c5.227,5.976,8.406,13.787,8.406,22.333
			C136.343,161.808,133.165,169.621,127.937,175.597z"/>
	</g>
</g>
<g>
	<g>
		<path d="M366.911,127.701h-48.088v-16.807c0-8.043-4.159-15.247-11.125-19.267c-6.965-4.021-15.282-4.021-22.247,0.001
			l-46.768,27.006c-6.965,4.022-11.122,11.224-11.122,19.266c0,8.042,4.158,15.245,11.122,19.266l46.768,27.006
			c3.483,2.012,7.304,3.017,11.125,3.017c3.82,0,7.64-1.006,11.122-3.016c6.966-4.021,11.125-11.224,11.125-19.267V148.1h48.088
			c20.319,0,36.849,16.531,36.849,36.849c0,5.633,4.567,10.199,10.199,10.199c5.632,0,10.199-4.566,10.199-10.199
			C424.158,153.382,398.477,127.701,366.911,127.701z M297.5,166.508c-0.614,0.355-1.235,0.355-1.849,0l-46.769-27.006
			c-0.614-0.354-0.924-0.892-0.924-1.601s0.311-1.247,0.924-1.601l46.769-27.006c0.307-0.177,0.616-0.265,0.924-0.265
			c0.308,0,0.617,0.088,0.924,0.265c0.615,0.354,0.925,0.892,0.925,1.601v54.013h0.001
			C298.425,165.616,298.114,166.154,297.5,166.508z"/>
	</g>
</g>
<g>
	<g>
		<path d="M278.614,319.308l-46.769-27.006c-6.965-4.023-15.281-4.024-22.249-0.001c-6.966,4.022-11.124,11.224-11.124,19.267
			v16.807h-48.088c-20.318,0-36.849-16.531-36.849-36.849c0-5.633-4.566-10.199-10.199-10.199c-5.633,0-10.199,4.566-10.199,10.199
			c0,31.567,25.681,57.247,57.247,57.247h48.088v16.807c0,8.043,4.159,15.246,11.124,19.267c3.483,2.01,7.304,3.016,11.123,3.016
			c3.821,0,7.642-1.006,11.125-3.017l46.768-27.007c6.965-4.021,11.123-11.224,11.123-19.266S285.578,323.329,278.614,319.308z
			 M268.412,340.175l-46.768,27.006c-0.613,0.355-1.234,0.355-1.849,0c-0.614-0.354-0.925-0.892-0.925-1.601v-54.013
			c0-0.709,0.311-1.247,0.925-1.601c0.307-0.177,0.616-0.265,0.924-0.265c0.309,0,0.618,0.089,0.925,0.265l46.769,27.006
			c0.614,0.354,0.924,0.892,0.924,1.601S269.026,339.821,268.412,340.175z"/>
	</g>
</g>
<g>
</g>
<g>
</g>
<g>
</g>
<g>
</g>
<g>
</g>
<g>
</g>
<g>
</g>
<g>
</g>
<g>
</g>
<g>
</g>
<g>
</g>
<g>
</g>
<g>
</g>
<g>
</g>
<g>
</g>
</svg>
